<svg width="27" height="28" viewBox="0 0 27 28" fill="none" xmlns="http://www.w3.org/2000/svg">
<path d="M8.32949 12.3333H8.34055M13.3045 12.3333H13.3155M18.2795 12.3333H18.2905M10.9828 22L12.5969 24.163C12.837 24.4846 12.957 24.6454 13.1041 24.703C13.233 24.7533 13.376 24.7533 13.5049 24.703C13.652 24.6454 13.772 24.4846 14.012 24.163L15.6262 22C15.9503 21.5657 16.1123 21.3486 16.31 21.1828C16.5735 20.9617 16.8846 20.8054 17.2187 20.7261C17.4693 20.6667 17.7393 20.6667 18.2795 20.6667C19.8249 20.6667 20.5976 20.6667 21.2071 20.4129C22.0197 20.0746 22.6654 19.4257 23.002 18.6089C23.2545 17.9964 23.2545 17.2198 23.2545 15.6667V9.33333C23.2545 7.46649 23.2545 6.53307 22.893 5.82003C22.575 5.19282 22.0676 4.68289 21.4436 4.36331C20.7341 4 19.8053 4 17.9478 4H8.66116C6.80365 4 5.8749 4 5.16542 4.36331C4.54135 4.68289 4.03397 5.19282 3.71599 5.82003C3.35449 6.53307 3.35449 7.46649 3.35449 9.33333V15.6667C3.35449 17.2198 3.35449 17.9964 3.60696 18.6089C3.94358 19.4257 4.58925 20.0746 5.40193 20.4129C6.01143 20.6667 6.78412 20.6667 8.32949 20.6667C8.86964 20.6667 9.13972 20.6667 9.39028 20.7261C9.72436 20.8054 10.0355 20.9617 10.299 21.1828C10.4967 21.3486 10.6587 21.5657 10.9828 22ZM8.88227 12.3333C8.88227 12.6402 8.63478 12.8889 8.32949 12.8889C8.0242 12.8889 7.77671 12.6402 7.77671 12.3333C7.77671 12.0265 8.0242 11.7778 8.32949 11.7778C8.63478 11.7778 8.88227 12.0265 8.88227 12.3333ZM13.8573 12.3333C13.8573 12.6402 13.6098 12.8889 13.3045 12.8889C12.9992 12.8889 12.7517 12.6402 12.7517 12.3333C12.7517 12.0265 12.9992 11.7778 13.3045 11.7778C13.6098 11.7778 13.8573 12.0265 13.8573 12.3333ZM18.8323 12.3333C18.8323 12.6402 18.5848 12.8889 18.2795 12.8889C17.9742 12.8889 17.7267 12.6402 17.7267 12.3333C17.7267 12.0265 17.9742 11.7778 18.2795 11.7778C18.5848 11.7778 18.8323 12.0265 18.8323 12.3333Z" stroke="white" stroke-width="1.5" stroke-linecap="round" stroke-linejoin="round"/>
</svg>
