<svg width="40" height="40" viewBox="0 0 40 40" fill="none" xmlns="http://www.w3.org/2000/svg">
<g id="camera-plus">
<path id="Icon" d="M36.6668 19.1666V24.3333C36.6668 28.0669 36.6668 29.9338 35.9402 31.3599C35.3011 32.6143 34.2812 33.6341 33.0268 34.2733C31.6007 34.9999 29.7338 34.9999 26.0002 34.9999H14.0002C10.2665 34.9999 8.39964 34.9999 6.97356 34.2733C5.71915 33.6341 4.69928 32.6143 4.06012 31.3599C3.3335 29.9338 3.3335 28.0669 3.3335 24.3333V15.6666C3.3335 11.9329 3.3335 10.0661 4.06012 8.63998C4.69928 7.38557 5.71915 6.3657 6.97356 5.72654C8.39964 4.99992 10.2665 4.99992 14.0002 4.99992H20.8335M31.6668 13.3333V3.33325M26.6668 8.33325H36.6668M26.6668 19.9999C26.6668 23.6818 23.6821 26.6666 20.0002 26.6666C16.3183 26.6666 13.3335 23.6818 13.3335 19.9999C13.3335 16.318 16.3183 13.3333 20.0002 13.3333C23.6821 13.3333 26.6668 16.318 26.6668 19.9999Z" stroke="white" stroke-width="2" stroke-linecap="round" stroke-linejoin="round"/>
</g>
</svg>
