<svg width="28" height="26" viewBox="0 0 28 26" fill="none" xmlns="http://www.w3.org/2000/svg">
<path d="M1 8.20225C1 6.31742 2.57252 4.78947 4.51231 4.78947C5.52018 4.78947 6.41498 4.16282 6.73369 3.23377L6.85 2.89474C6.90485 2.73486 6.93227 2.65492 6.96161 2.584C7.33626 1.67847 8.21421 1.06362 9.2168 1.00462C9.29531 1 9.38204 1 9.55548 1H18.4445C18.618 1 18.7047 1 18.7832 1.00462C19.7858 1.06362 20.6637 1.67847 21.0384 2.584C21.0677 2.65492 21.0952 2.73486 21.15 2.89474L21.2663 3.23377C21.585 4.16282 22.4798 4.78947 23.4877 4.78947C25.4275 4.78947 27 6.31742 27 8.20225V18.9368C27 21.0591 27 22.1203 26.5749 22.9309C26.201 23.6439 25.6044 24.2237 24.8706 24.587C24.0363 25 22.9442 25 20.76 25H7.24C5.0558 25 3.96369 25 3.12944 24.587C2.3956 24.2237 1.79898 23.6439 1.42507 22.9309C1 22.1203 1 21.0591 1 18.9368V8.20225Z" stroke="#7D8080" stroke-width="2" stroke-linecap="round" stroke-linejoin="round"/>
<path d="M14 19.3158C17.2309 19.3158 19.85 16.7709 19.85 13.6316C19.85 10.4923 17.2309 7.94737 14 7.94737C10.7691 7.94737 8.15 10.4923 8.15 13.6316C8.15 16.7709 10.7691 19.3158 14 19.3158Z" stroke="#7D8080" stroke-width="2" stroke-linecap="round" stroke-linejoin="round"/>
</svg>
