<svg width="48" height="47" viewBox="0 0 48 47" fill="none" xmlns="http://www.w3.org/2000/svg">
<g filter="url(#filter0_d_422_2735)">
<rect x="4" width="40" height="38.5738" rx="4" fill="#F3F9FF" shape-rendering="crispEdges"/>
<g clip-path="url(#clip0_422_2735)">
<path d="M24.0004 31.1C17.8798 31.1 12.9004 26.1206 12.9004 20C12.9004 13.8794 17.8798 8.90002 24.0004 8.90002C30.121 8.90002 35.1004 13.8794 35.1004 20C35.1004 26.1206 30.121 31.1 24.0004 31.1Z" fill="#8EB3FB"/>
<path d="M23.9996 9.19998C29.9546 9.19998 34.7996 14.045 34.7996 20C34.7996 25.955 29.9546 30.8 23.9996 30.8C18.0446 30.8 13.1996 25.955 13.1996 20C13.1996 14.045 18.0446 9.19998 23.9996 9.19998ZM23.9996 8.59998C17.7038 8.59998 12.5996 13.7042 12.5996 20C12.5996 26.2958 17.7038 31.4 23.9996 31.4C30.2954 31.4 35.3996 26.2958 35.3996 20C35.3996 13.7042 30.2954 8.59998 23.9996 8.59998Z" fill="#8EB3FB"/>
<path d="M24.0008 14C23.6825 14 23.3773 14.1264 23.1523 14.3515C22.9272 14.5765 22.8008 14.8817 22.8008 15.2C22.8008 15.5183 22.9272 15.8235 23.1523 16.0485C23.3773 16.2736 23.6825 16.4 24.0008 16.4C24.319 16.4 24.6243 16.2736 24.8493 16.0485C25.0744 15.8235 25.2008 15.5183 25.2008 15.2C25.2008 14.8817 25.0744 14.5765 24.8493 14.3515C24.6243 14.1264 24.319 14 24.0008 14Z" fill="white"/>
<path d="M25.1992 24.8V17.6H22.1992V18.2H22.7992V24.8H22.1992V25.4H25.7992V24.8H25.1992Z" fill="white"/>
</g>
</g>
<defs>
<filter id="filter0_d_422_2735" x="0" y="0" width="48" height="46.5737" filterUnits="userSpaceOnUse" color-interpolation-filters="sRGB">
<feFlood flood-opacity="0" result="BackgroundImageFix"/>
<feColorMatrix in="SourceAlpha" type="matrix" values="0 0 0 0 0 0 0 0 0 0 0 0 0 0 0 0 0 0 127 0" result="hardAlpha"/>
<feOffset dy="4"/>
<feGaussianBlur stdDeviation="2"/>
<feComposite in2="hardAlpha" operator="out"/>
<feColorMatrix type="matrix" values="0 0 0 0 0 0 0 0 0 0 0 0 0 0 0 0 0 0 0.25 0"/>
<feBlend mode="normal" in2="BackgroundImageFix" result="effect1_dropShadow_422_2735"/>
<feBlend mode="normal" in="SourceGraphic" in2="effect1_dropShadow_422_2735" result="shape"/>
</filter>
<clipPath id="clip0_422_2735">
<rect width="24" height="24" fill="white" transform="translate(12 8)"/>
</clipPath>
</defs>
</svg>
