<svg width="36" height="36" viewBox="0 0 36 36" fill="none" xmlns="http://www.w3.org/2000/svg">
<g filter="url(#filter0_d_170_1524)">
<rect x="6" y="6" width="24" height="24" rx="4" fill="url(#paint0_linear_170_1524)"/>
<path d="M8.87604 24.1155C8.92198 23.702 8.94496 23.4952 9.00751 23.302C9.06301 23.1305 9.14143 22.9674 9.24064 22.8169C9.35246 22.6474 9.49955 22.5003 9.79373 22.2061L23 8.99981C24.1046 7.89524 25.8955 7.89525 27 8.99981C28.1046 10.1044 28.1046 11.8952 27 12.9998L13.7937 26.2061C13.4995 26.5003 13.3525 26.6474 13.1829 26.7592C13.0324 26.8584 12.8693 26.9368 12.6978 26.9923C12.5046 27.0549 12.2979 27.0778 11.8844 27.1238L8.5 27.4998L8.87604 24.1155Z" stroke="#F2EFE8" stroke-width="1.5" stroke-linecap="round" stroke-linejoin="round"/>
</g>
<defs>
<filter id="filter0_d_170_1524" x="0" y="0" width="36" height="36" filterUnits="userSpaceOnUse" color-interpolation-filters="sRGB">
<feFlood flood-opacity="0" result="BackgroundImageFix"/>
<feColorMatrix in="SourceAlpha" type="matrix" values="0 0 0 0 0 0 0 0 0 0 0 0 0 0 0 0 0 0 127 0" result="hardAlpha"/>
<feOffset/>
<feGaussianBlur stdDeviation="3"/>
<feComposite in2="hardAlpha" operator="out"/>
<feColorMatrix type="matrix" values="0 0 0 0 0.890196 0 0 0 0 0.737255 0 0 0 0 0.737255 0 0 0 1 0"/>
<feBlend mode="normal" in2="BackgroundImageFix" result="effect1_dropShadow_170_1524"/>
<feBlend mode="normal" in="SourceGraphic" in2="effect1_dropShadow_170_1524" result="shape"/>
</filter>
<linearGradient id="paint0_linear_170_1524" x1="30" y1="18" x2="6" y2="18" gradientUnits="userSpaceOnUse">
<stop stop-color="#FFC68D"/>
<stop offset="1" stop-color="#FB8B78"/>
</linearGradient>
</defs>
</svg>
