<svg width="24" height="25" viewBox="0 0 24 25" fill="none" xmlns="http://www.w3.org/2000/svg">
<path d="M12.0004 23.6738C5.87979 23.6738 0.900391 18.6944 0.900391 12.5738C0.900391 6.45316 5.87979 1.47375 12.0004 1.47375C18.121 1.47375 23.1004 6.45316 23.1004 12.5738C23.1004 18.6944 18.121 23.6738 12.0004 23.6738Z" fill="#8EB3FB"/>
<path d="M11.9996 1.77371C17.9546 1.77371 22.7996 6.61871 22.7996 12.5737C22.7996 18.5287 17.9546 23.3737 11.9996 23.3737C6.04461 23.3737 1.19961 18.5287 1.19961 12.5737C1.19961 6.61871 6.04461 1.77371 11.9996 1.77371ZM11.9996 1.17371C5.70381 1.17371 0.599609 6.27791 0.599609 12.5737C0.599609 18.8695 5.70381 23.9737 11.9996 23.9737C18.2954 23.9737 23.3996 18.8695 23.3996 12.5737C23.3996 6.27791 18.2954 1.17371 11.9996 1.17371Z" fill="#8EB3FB"/>
<path d="M12.0008 6.57373C11.6825 6.57373 11.3773 6.70016 11.1523 6.9252C10.9272 7.15025 10.8008 7.45547 10.8008 7.77373C10.8008 8.09199 10.9272 8.39721 11.1523 8.62226C11.3773 8.8473 11.6825 8.97373 12.0008 8.97373C12.319 8.97373 12.6243 8.8473 12.8493 8.62226C13.0744 8.39721 13.2008 8.09199 13.2008 7.77373C13.2008 7.45547 13.0744 7.15025 12.8493 6.9252C12.6243 6.70016 12.319 6.57373 12.0008 6.57373Z" fill="white"/>
<path d="M13.1992 17.3737V10.1737H10.1992V10.7737H10.7992V17.3737H10.1992V17.9737H13.7992V17.3737H13.1992Z" fill="white"/>
</svg>
