<svg width="200" height="200" viewBox="0 0 200 200" fill="none" xmlns="http://www.w3.org/2000/svg">
<path fill-rule="evenodd" clip-rule="evenodd" d="M133.333 27.0225H66.6667C43.6548 27.0225 25 45.6773 25 68.6891V135.356C25 158.367 43.6548 177.022 66.6667 177.022H133.333C156.345 177.022 175 158.367 175 135.356V68.6891C175 45.6773 156.345 27.0225 133.333 27.0225ZM160.417 135.356C160.371 150.294 148.272 162.393 133.333 162.439H66.6667C51.7279 162.393 39.6291 150.294 39.5833 135.356V68.6891C39.6291 53.7504 51.7279 41.6515 66.6667 41.6058H133.333C148.272 41.6515 160.371 53.7504 160.417 68.6891V135.356ZM139.583 70.7725C144.186 70.7725 147.917 67.0415 147.917 62.4391C147.917 57.8368 144.186 54.1058 139.583 54.1058C134.981 54.1058 131.25 57.8368 131.25 62.4391C131.25 67.0415 134.981 70.7725 139.583 70.7725ZM100 64.5225C79.2893 64.5225 62.5 81.3118 62.5 102.022C62.5 122.733 79.2893 139.522 100 139.522C120.711 139.522 137.5 122.733 137.5 102.022C137.522 92.07 133.578 82.5189 126.541 75.4815C119.503 68.444 109.952 64.5003 100 64.5225ZM77.0833 102.022C77.0833 114.679 87.3433 124.939 100 124.939C112.657 124.939 122.917 114.679 122.917 102.022C122.917 89.3658 112.657 79.1058 100 79.1058C87.3433 79.1058 77.0833 89.3658 77.0833 102.022Z" fill="white"/>
</svg>
