<svg width="186" height="180" viewBox="0 0 186 180" fill="none" xmlns="http://www.w3.org/2000/svg">
<circle cx="95.5" cy="90.5" r="70.5" fill="#FFE247"/>
<circle cx="178.466" cy="27.5" r="7.5" fill="#FFE247"/>
<circle cx="20.0332" cy="10" r="10" fill="#FFE247"/>
<circle cx="10.0332" cy="133" r="5" fill="#FFE247"/>
<circle cx="165.533" cy="160.5" r="2.5" fill="#FFE247"/>
<path d="M74.3923 87.4135C72.9287 86.8444 72.197 86.5598 71.9833 86.1497C71.7981 85.7942 71.7979 85.3708 71.9827 85.0151C72.1958 84.6048 72.9273 84.3194 74.3901 83.7485L115.906 67.5472C117.226 67.0319 117.887 66.7742 118.309 66.9152C118.675 67.0376 118.963 67.3251 119.085 67.6915C119.226 68.1134 118.968 68.7737 118.453 70.0943L102.252 111.61C101.681 113.073 101.395 113.804 100.985 114.017C100.629 114.202 100.206 114.202 99.8504 114.017C99.4404 113.803 99.1558 113.071 98.5866 111.608L92.1259 94.9944C92.0103 94.6973 91.9526 94.5488 91.8633 94.4237C91.7843 94.3128 91.6873 94.2159 91.5764 94.1368C91.4514 94.0476 91.3028 93.9898 91.0057 93.8743L74.3923 87.4135Z" stroke="white" stroke-width="4.64384" stroke-linecap="round" stroke-linejoin="round"/>
<circle cx="106.533" cy="4.5" r="2.5" fill="#FFE247"/>
<circle cx="62.5332" cy="176.5" r="3.5" fill="#FFE247"/>
<circle cx="122.033" cy="171" r="1" fill="#FFE247"/>
<circle cx="170.533" cy="110.5" r="2.5" fill="#FFE247"/>
<circle cx="1.0332" cy="75" r="1" fill="#FFE247"/>
</svg>
