<svg width="120" height="120" viewBox="0 0 120 120" fill="none" xmlns="http://www.w3.org/2000/svg">
<g id="Frame 1000007061">
<g id="Mask group">
<mask id="mask0_170_1513" style="mask-type:alpha" maskUnits="userSpaceOnUse" x="0" y="0" width="120" height="120">
<path id="iOS Background" d="M0 42.6667C0 27.7319 0 20.2646 2.90649 14.5603C5.46312 9.5426 9.5426 5.46312 14.5603 2.90649C20.2646 0 27.7319 0 42.6667 0H77.3333C92.2681 0 99.7354 0 105.44 2.90649C110.457 5.46312 114.537 9.5426 117.093 14.5603C120 20.2646 120 27.7319 120 42.6667V77.3333C120 92.2681 120 99.7354 117.093 105.44C114.537 110.457 110.457 114.537 105.44 117.093C99.7354 120 92.2681 120 77.3333 120H42.6667C27.7319 120 20.2646 120 14.5603 117.093C9.5426 114.537 5.46312 110.457 2.90649 105.44C0 99.7354 0 92.2681 0 77.3333V42.6667Z" fill="url(#paint0_linear_170_1513)"/>
</mask>
<g mask="url(#mask0_170_1513)">
<g id="Group 20">
<path id="Vector 5" d="M29.2969 32.1194L44.0328 52.0281H56.0058H77.4189L81.7936 44.6619L87.5499 34.7075L96.9901 30.3276L102.977 36.8975L110.575 52.0281L115.41 74.5249V98.6144L109.193 114.939L94.6876 122.505L79.9516 129.672L48.4076 128.477L20.5475 121.31L6.96279 109.564L3.27881 77.113L16.8635 34.7075L29.2969 32.1194Z" fill="#BFE5E8"/>
<path id="Vector 4 (Stroke)" fill-rule="evenodd" clip-rule="evenodd" d="M66.5652 91.3199C64.63 91.1872 62.953 92.6402 62.8196 94.5654C62.7919 94.9649 62.6235 95.4645 62.3195 95.8059C62.1138 96.0369 61.6351 96.4543 60.3277 96.4543C59.0203 96.4543 58.5417 96.0369 58.336 95.8059C58.032 95.4645 57.8636 94.9649 57.8359 94.5654C57.7025 92.6402 56.0255 91.1872 54.0903 91.3199C52.1551 91.4527 50.6945 93.121 50.828 95.0462C50.9382 96.6351 51.5348 98.7068 53.0778 100.44C54.719 102.283 57.1693 103.443 60.3277 103.443C63.4862 103.443 65.9365 102.283 67.5777 100.44C69.1207 98.7068 69.7173 96.6351 69.8275 95.0462C69.9609 93.121 68.5003 91.4527 66.5652 91.3199Z" fill="#153747"/>
<path id="Vector 3 (Stroke)" fill-rule="evenodd" clip-rule="evenodd" d="M42.8483 56.9102C54.1449 53.5692 66.1834 53.5692 77.48 56.9102L81.3283 58.0483C83.2088 58.6045 85.1893 57.5482 85.7518 55.689C86.3144 53.8298 85.246 51.8718 83.3655 51.3156L79.5171 50.1775C66.8916 46.4434 53.4367 46.4434 40.8112 50.1775L36.9628 51.3156C35.0823 51.8718 34.0139 53.8298 34.5765 55.689C35.139 57.5482 37.1195 58.6045 39 58.0483L42.8483 56.9102Z" fill="#153747"/>
<path id="Vector (Stroke)" fill-rule="evenodd" clip-rule="evenodd" d="M13.922 31.7695C16.5295 28.8583 20.0228 26.7212 24.4532 26.7212C27.9251 26.7212 30.9236 28.066 33.3507 29.8564C35.764 31.6367 37.8104 33.9955 39.5053 36.4398C42.8924 41.3245 45.2799 47.1429 46.4706 51.2283C47.025 53.1304 45.7751 55.0802 43.6788 55.5832C41.5825 56.0863 39.4337 54.9521 38.8793 53.05C37.836 49.4701 35.7205 44.3607 32.8591 40.2341C31.4297 38.1727 29.9155 36.5049 28.3974 35.3849C26.893 34.2752 25.5892 33.8462 24.4532 33.8462C23.1239 33.8462 21.669 34.4173 20.0156 36.2632C18.3147 38.1622 16.7104 41.1035 15.2708 45.0224C12.4023 52.8309 10.5499 63.4843 9.29933 74.5481C8.0189 85.876 6.67193 99.3413 12.4758 110.025C17.9605 120.121 30.5345 128.756 60.1637 128.776C89.7929 128.756 102.367 120.121 107.852 110.025C113.655 99.3413 112.309 85.876 111.028 74.5481C109.778 63.4843 107.925 52.8309 105.057 45.0224C103.617 41.1035 102.013 38.1622 100.312 36.2632C98.6584 34.4173 97.2035 33.8462 95.8742 33.8462C94.7382 33.8462 93.4344 34.2752 91.9301 35.3849C90.4119 36.5049 88.8977 38.1727 87.4683 40.2341C84.607 44.3607 82.4915 49.4701 81.4481 53.05C80.8937 54.9521 78.7449 56.0863 76.6486 55.5832C74.5524 55.0802 73.3024 53.1304 73.8568 51.2283C75.0475 47.1429 77.4351 41.3245 80.8221 36.4398C82.517 33.9955 84.5634 31.6367 86.9767 29.8564C89.4038 28.066 92.4024 26.7212 95.8742 26.7212C100.305 26.7212 103.798 28.8583 106.405 31.7695C108.965 34.6276 110.935 38.4923 112.506 42.7693C115.659 51.3523 117.577 62.6494 118.839 73.8211L118.852 73.937C120.085 84.8391 121.842 100.386 114.895 113.175C107.629 126.55 91.5986 135.852 60.3103 135.901C60.2964 135.901 60.2824 135.902 60.2684 135.902C60.2335 135.902 60.1986 135.902 60.1637 135.901C60.1288 135.902 60.0939 135.902 60.059 135.902C60.045 135.902 60.0311 135.901 60.0171 135.901C28.7289 135.852 12.6983 126.55 5.43271 113.175C-1.51493 100.386 0.242536 84.8391 1.47494 73.937L1.48804 73.8211C2.75081 62.6494 4.66845 51.3523 7.82149 42.7693C9.39264 38.4923 11.3621 34.6276 13.922 31.7695Z" fill="#153747"/>
<g id="Group 15">
<path id="Ellipse 16" d="M81.967 89.8361C81.967 93.186 84.6826 95.9017 88.0326 95.9017C91.3825 95.9017 94.0981 93.186 94.0981 89.8361C94.0981 86.4862 91.3825 83.7705 88.0326 83.7705C84.6826 83.7705 81.967 86.4862 81.967 89.8361Z" fill="#153747"/>
<path id="Ellipse 17" d="M26.2292 89.8361C26.2292 93.186 28.9449 95.9017 32.2948 95.9017C35.6447 95.9017 38.3604 93.186 38.3604 89.8361C38.3604 86.4862 35.6447 83.7705 32.2948 83.7705C28.9449 83.7705 26.2292 86.4862 26.2292 89.8361Z" fill="#153747"/>
</g>
</g>
</g>
</g>
</g>
<defs>
<linearGradient id="paint0_linear_170_1513" x1="60" y1="0" x2="60" y2="120" gradientUnits="userSpaceOnUse">
<stop stop-color="#FAF6F4"/>
<stop offset="1" stop-color="#FAF6F4"/>
</linearGradient>
</defs>
</svg>
