<svg width="48" height="48" viewBox="0 0 48 48" fill="none" xmlns="http://www.w3.org/2000/svg">
<rect width="48" height="48" rx="9.6" fill="white"/>
<mask id="mask0_140_11831" style="mask-type:alpha" maskUnits="userSpaceOnUse" x="0" y="0" width="48" height="48">
<path d="M0 17.0667C0 11.0928 0 8.10583 1.1626 5.8241C2.18525 3.81704 3.81704 2.18525 5.8241 1.1626C8.10583 0 11.0928 0 17.0667 0H30.9333C36.9072 0 39.8942 0 42.1759 1.1626C44.183 2.18525 45.8148 3.81704 46.8374 5.8241C48 8.10583 48 11.0928 48 17.0667V30.9333C48 36.9072 48 39.8942 46.8374 42.1759C45.8148 44.183 44.183 45.8148 42.1759 46.8374C39.8942 48 36.9072 48 30.9333 48H17.0667C11.0928 48 8.10583 48 5.8241 46.8374C3.81704 45.8148 2.18525 44.183 1.1626 42.1759C0 39.8942 0 36.9072 0 30.9333V17.0667Z" fill="url(#paint0_linear_140_11831)"/>
</mask>
<g mask="url(#mask0_140_11831)">
<path d="M11.7188 12.8478L17.6131 20.8113H22.4023H30.9676L32.7175 17.8648L35.0199 13.8831L38.796 12.1311L41.1906 14.759L44.2299 20.8113L46.164 29.81V39.4458L43.6773 45.9758L37.875 49.002L31.9807 51.8688L19.363 51.391L8.21899 48.5242L2.78512 43.8257L1.31152 30.8453L6.74539 13.8831L11.7188 12.8478Z" fill="#BFE5E8"/>
<path fill-rule="evenodd" clip-rule="evenodd" d="M26.6263 36.5278C25.8522 36.4747 25.1814 37.0559 25.128 37.826C25.1169 37.9858 25.0496 38.1856 24.928 38.3221C24.8457 38.4146 24.6543 38.5815 24.1313 38.5815C23.6083 38.5815 23.4169 38.4146 23.3346 38.3221C23.213 38.1856 23.1456 37.9858 23.1346 37.826C23.0812 37.0559 22.4104 36.4747 21.6363 36.5278C20.8622 36.5809 20.278 37.2482 20.3314 38.0183C20.3755 38.6538 20.6141 39.4825 21.2313 40.1757C21.8878 40.913 22.8679 41.3769 24.1313 41.3769C25.3947 41.3769 26.3748 40.913 27.0313 40.1757C27.6485 39.4825 27.8871 38.6538 27.9312 38.0183C27.9846 37.2482 27.4003 36.5809 26.6263 36.5278Z" fill="#153747"/>
<path fill-rule="evenodd" clip-rule="evenodd" d="M17.1389 22.764C21.6576 21.4276 26.473 21.4276 30.9916 22.764L32.5309 23.2192C33.2831 23.4417 34.0753 23.0192 34.3003 22.2755C34.5254 21.5318 34.098 20.7486 33.3458 20.5262L31.8065 20.0709C26.7562 18.5773 21.3743 18.5773 16.3241 20.0709L14.7847 20.5262C14.0325 20.7486 13.6052 21.5318 13.8302 22.2755C14.0552 23.0192 14.8474 23.4417 15.5996 23.2192L17.1389 22.764Z" fill="#153747"/>
<path fill-rule="evenodd" clip-rule="evenodd" d="M5.56862 12.7078C6.61162 11.5433 8.00892 10.6885 9.7811 10.6885C11.1698 10.6885 12.3692 11.2264 13.3401 11.9426C14.3054 12.6547 15.124 13.5982 15.8019 14.5759C17.1567 16.5298 18.1118 18.8572 18.5881 20.4913C18.8098 21.2522 18.3098 22.0321 17.4713 22.2333C16.6328 22.4345 15.7733 21.9808 15.5515 21.22C15.1342 19.788 14.288 17.7443 13.1434 16.0936C12.5717 15.2691 11.966 14.602 11.3587 14.154C10.757 13.7101 10.2355 13.5385 9.7811 13.5385C9.24937 13.5385 8.66741 13.7669 8.00605 14.5053C7.32568 15.2649 6.68398 16.4414 6.10813 18.009C4.96072 21.1324 4.21977 25.3937 3.71954 29.8192C3.20737 34.3504 2.66857 39.7365 4.99013 44.01C7.18402 48.0485 12.2136 51.5025 24.0653 51.5106C35.917 51.5025 40.9466 48.0485 43.1405 44.01C45.462 39.7365 44.9232 34.3504 44.411 29.8192C43.9108 25.3937 43.1699 21.1324 42.0224 18.009C41.4466 16.4414 40.8049 15.2649 40.1245 14.5053C39.4632 13.7669 38.8812 13.5385 38.3495 13.5385C37.8951 13.5385 37.3736 13.7101 36.7718 14.154C36.1646 14.602 35.5589 15.2691 34.9871 16.0936C33.8426 17.7443 32.9964 19.788 32.579 21.22C32.3573 21.9808 31.4978 22.4345 30.6593 22.2333C29.8207 22.0321 29.3208 21.2522 29.5425 20.4913C30.0188 18.8572 30.9738 16.5298 32.3287 14.5759C33.0066 13.5982 33.8252 12.6547 34.7905 11.9426C35.7613 11.2264 36.9607 10.6885 38.3495 10.6885C40.1217 10.6885 41.519 11.5433 42.562 12.7078C43.5859 13.851 44.3737 15.3969 45.0022 17.1077C46.2634 20.5409 47.0304 25.0598 47.5356 29.5284L47.5408 29.5748C48.0338 33.9357 48.7367 40.1544 45.9577 45.2701C43.0515 50.6198 36.6392 54.3407 24.1239 54.3605C24.1183 54.3606 24.1128 54.3606 24.1072 54.3606C24.0932 54.3606 24.0792 54.3606 24.0653 54.3606C24.0513 54.3606 24.0374 54.3606 24.0234 54.3606C24.0178 54.3606 24.0122 54.3606 24.0066 54.3605C11.4913 54.3407 5.07911 50.6198 2.17289 45.2701C-0.606168 40.1544 0.0968191 33.9356 0.58978 29.5748L0.59502 29.5284C1.10013 25.0598 1.86718 20.5409 3.1284 17.1077C3.75686 15.3969 4.54463 13.851 5.56862 12.7078Z" fill="#153747"/>
<path d="M32.7872 35.9343C32.7872 37.2743 33.8734 38.3605 35.2134 38.3605C36.5534 38.3605 37.6396 37.2743 37.6396 35.9343C37.6396 34.5943 36.5534 33.5081 35.2134 33.5081C33.8734 33.5081 32.7872 34.5943 32.7872 35.9343Z" fill="#153747"/>
<path d="M10.4923 35.9343C10.4923 37.2743 11.5785 38.3605 12.9185 38.3605C14.2585 38.3605 15.3447 37.2743 15.3447 35.9343C15.3447 34.5943 14.2585 33.5081 12.9185 33.5081C11.5785 33.5081 10.4923 34.5943 10.4923 35.9343Z" fill="#153747"/>
</g>
<defs>
<linearGradient id="paint0_linear_140_11831" x1="24" y1="0" x2="24" y2="48" gradientUnits="userSpaceOnUse">
<stop stop-color="#FAF6F4"/>
<stop offset="1" stop-color="#FAF6F4"/>
</linearGradient>
</defs>
</svg>
