<svg width="40" height="40" viewBox="0 0 40 40" fill="none" xmlns="http://www.w3.org/2000/svg">
<path d="M17.1351 8.9761C18.2332 6.48567 21.7668 6.48567 22.8649 8.9761C23.7672 11.0225 25.8911 12.2487 28.1145 12.007C30.8203 11.7127 32.5872 14.7729 30.9794 16.9691C29.6583 18.7738 29.6583 21.2262 30.9794 23.0309C32.5872 25.2271 30.8203 28.2873 28.1145 27.993C25.8911 27.7513 23.7672 28.9775 22.8649 31.0239C21.7668 33.5143 18.2332 33.5143 17.1351 31.0239C16.2328 28.9775 14.1089 27.7513 11.8855 27.993C9.17965 28.2873 7.41284 25.2271 9.02057 23.0309C10.3417 21.2262 10.3417 18.7738 9.02057 16.9691C7.41284 14.7729 9.17965 11.7127 11.8855 12.007C14.1089 12.2487 16.2328 11.0225 17.1351 8.9761Z" stroke="#FBFBFB" stroke-width="2"/>
<circle cx="20" cy="20" r="5" stroke="#FBFBFB" stroke-width="2"/>
</svg>
