<svg width="25" height="24" viewBox="0 0 25 24" fill="none" xmlns="http://www.w3.org/2000/svg">
<path d="M12.5 24C19.1274 24 24.5 18.6274 24.5 12C24.5 5.37258 19.1274 0 12.5 0C5.87258 0 0.5 5.37258 0.5 12C0.5 18.6274 5.87258 24 12.5 24Z" fill="#627EEA"/>
<path d="M12.8735 3V9.6525L18.4963 12.165L12.8735 3Z" fill="white" fill-opacity="0.602"/>
<path d="M12.8735 3L7.25 12.165L12.8735 9.6525V3Z" fill="white"/>
<path d="M12.8737 16.4749V20.9952L18.5002 13.2109L12.8737 16.4749Z" fill="white" fill-opacity="0.602"/>
<path d="M12.8735 20.9952V16.4742L7.25 13.2109L12.8735 20.9952Z" fill="white"/>
<path d="M12.8735 15.4297L18.4963 12.165L12.8735 9.65399V15.4297Z" fill="white" fill-opacity="0.2"/>
<path d="M7.25 12.165L12.8735 15.4297V9.65399L7.25 12.165Z" fill="white" fill-opacity="0.602"/>
</svg>
