<svg width="105" height="106" viewBox="0 0 105 106" fill="none" xmlns="http://www.w3.org/2000/svg">
<path d="M26.7747 5.77409L39.3905 25.4862H49.6408H67.9731L71.7184 18.1927L76.6465 8.33667L84.7285 4L89.8536 10.505L96.3586 25.4862L100.498 47.761V71.6127L95.1759 87.7766L82.7572 95.2673L70.1415 102.364L43.1358 101.181L19.2841 94.0845L7.65394 82.4544L4.5 50.3236L16.1302 8.33667L26.7747 5.77409Z" fill="#BEE5E8"/>
<path d="M58.668 65.5972C58.5365 67.504 57.2082 70.5292 52.9474 70.5292C48.6866 70.5292 47.3584 67.504 47.2268 65.5972" stroke="#153747" stroke-width="4.19672" stroke-linecap="round"/>
<path d="M73.6846 27.8677V27.8677C60.0394 23.7858 45.4981 23.7858 31.853 27.8677V27.8677" stroke="#153747" stroke-width="8.91803" stroke-linecap="round"/>
<path d="M67.7084 25.5439C69.6152 18.3336 75.3954 4.9856 83.2612 4.9856C93.0934 4.9856 97.3838 25.3651 99.529 46.2809C101.674 67.1967 104.892 100.984 52.6919 100.984" stroke="#153747" stroke-width="8.91803" stroke-linecap="round"/>
<path d="M37.8541 25.5441C35.9473 18.3338 30.1671 4.98584 22.3013 4.98584C12.4691 4.98584 8.17869 25.3653 6.03348 46.2811C3.88827 67.197 0.670452 100.984 52.8706 100.984" stroke="#153747" stroke-width="8.91803" stroke-linecap="round"/>
<circle cx="5.72056" cy="5.72056" r="5.72056" transform="matrix(-1 0 0 1 84.7686 55.2192)" fill="#153747"/>
<circle cx="5.72056" cy="5.72056" r="5.72056" transform="matrix(-1 0 0 1 32.2109 55.2192)" fill="#153747"/>
<circle cx="5.72056" cy="5.72056" r="5.72056" transform="matrix(-1 0 0 1 87.6289 69.1631)" fill="#FFD6CB"/>
<circle cx="5.72056" cy="5.72056" r="5.72056" transform="matrix(-1 0 0 1 29.3506 69.1631)" fill="#FFD6CB"/>
<circle cx="5.72056" cy="5.72056" r="5.72056" transform="matrix(-1 0 0 1 87.6289 69.1631)" fill="#F9C0B1"/>
<circle cx="5.72056" cy="5.72056" r="5.72056" transform="matrix(-1 0 0 1 29.3506 69.1631)" fill="#F9C0B1"/>
</svg>
