<svg width="175" height="176" viewBox="0 0 175 176" fill="none" xmlns="http://www.w3.org/2000/svg">
<path d="M44.1245 8.95682L65.1508 41.8104H82.2347H112.789L119.031 29.6546L127.244 13.2278L140.714 6L149.256 16.8417L160.098 41.8104L166.997 78.935V118.688L158.126 145.628L137.429 158.112L116.402 169.939L71.393 167.968L31.6402 156.141L12.2566 136.757L7 83.2059L26.3836 13.2278L44.1245 8.95682Z" fill="#91DBA5"/>
<path d="M97.2806 108.662C97.0615 111.84 94.8478 116.882 87.7464 116.882C80.645 116.882 78.4313 111.84 78.2121 108.662" stroke="#153747" stroke-width="6.99454" stroke-linecap="round"/>
<path d="M122.308 45.7797V45.7797C99.5662 38.9765 75.3307 38.9765 52.5888 45.7797V45.7797" stroke="#153747" stroke-width="14.8634" stroke-linecap="round"/>
<path d="M112.347 41.9064C115.525 29.8892 125.159 7.64258 138.269 7.64258C154.656 7.64258 161.806 41.6084 165.382 76.4681C168.957 111.328 174.32 167.64 87.3199 167.64" stroke="#153747" stroke-width="14.8634" stroke-linecap="round"/>
<path d="M62.5903 41.9064C59.4122 29.8892 49.7786 7.64258 36.669 7.64258C20.282 7.64258 13.1313 41.6084 9.55592 76.4681C5.98057 111.328 0.617543 167.64 87.6178 167.64" stroke="#153747" stroke-width="14.8634" stroke-linecap="round"/>
<circle cx="9.53427" cy="9.53427" r="9.53427" transform="matrix(-1 0 0 1 140.781 91.3652)" fill="#153747"/>
<circle cx="9.53427" cy="9.53427" r="9.53427" transform="matrix(-1 0 0 1 53.1846 91.3652)" fill="#153747"/>
<circle cx="9.53427" cy="9.53427" r="9.53427" transform="matrix(-1 0 0 1 145.548 114.605)" fill="#FFD6CB"/>
<circle cx="9.53427" cy="9.53427" r="9.53427" transform="matrix(-1 0 0 1 48.4175 114.605)" fill="#FFD6CB"/>
<circle cx="9.53427" cy="9.53427" r="9.53427" transform="matrix(-1 0 0 1 145.548 114.605)" fill="#F9C0B1"/>
<circle cx="9.53427" cy="9.53427" r="9.53427" transform="matrix(-1 0 0 1 48.4174 114.605)" fill="#F9C0B1"/>
</svg>
