<svg width="24" height="24" viewBox="0 0 24 24" fill="none" xmlns="http://www.w3.org/2000/svg">
<path d="M20.3027 2.9843C20.0138 2.99687 19.7486 3.07998 19.5156 3.1718C19.3004 3.25656 18.5275 3.5814 17.2969 4.09759C16.0662 4.61377 14.4355 5.29816 12.6973 6.02923C9.22084 7.49135 5.31424 9.13605 3.3125 9.97844C3.24376 10.0071 2.96459 10.0926 2.65625 10.3281C2.3472 10.5641 2.00391 11.0764 2.00391 11.6366C2.00391 12.0886 2.22952 12.5489 2.50195 12.8124C2.77439 13.076 3.05049 13.1992 3.28125 13.2909V13.289C4.06128 13.5998 6.39069 14.5319 6.94531 14.7538C7.14204 15.3434 7.98659 17.8672 8.1875 18.5019H8.18555C8.32756 18.9511 8.46598 19.2438 8.6582 19.4882C8.75431 19.6104 8.86904 19.7211 9.00977 19.8085C9.06376 19.8421 9.12355 19.8681 9.18359 19.8925C9.19196 19.8961 9.20059 19.8969 9.20898 19.9003L9.18555 19.8945C9.20296 19.9015 9.21858 19.9118 9.23633 19.9179C9.26524 19.9279 9.28529 19.9275 9.32422 19.9355C9.46122 19.9776 9.59798 20.0058 9.72461 20.0058C10.2682 20.0058 10.6016 19.7109 10.6016 19.7109L10.623 19.6952L12.9707 17.7089L15.8457 20.3691C15.8982 20.4432 16.3096 20.9999 17.2617 20.9999C17.8298 20.9999 18.279 20.7187 18.5664 20.4238C18.8538 20.1288 19.0328 19.827 19.1133 19.4179L19.1152 19.4159C19.1794 19.0858 21.9316 5.26555 21.9316 5.26555L21.9258 5.28899C22.0114 4.90665 22.0367 4.53689 21.9355 4.16009C21.8344 3.78328 21.5613 3.41556 21.2324 3.22259C20.9036 3.02962 20.5917 2.97173 20.3027 2.9843ZM19.9082 5.17376C19.7994 5.71979 17.334 18.1058 17.1816 18.8827L13.0293 15.0409L10.2227 17.414L11 14.3749C11 14.3749 16.3625 8.94679 16.6855 8.63079C16.9455 8.37779 17 8.2891 17 8.2011C17 8.0841 16.9398 7.99993 16.8008 7.99993C16.6758 7.99993 16.506 8.11971 16.416 8.17571C15.2724 8.88871 10.4013 11.6646 8.00586 13.0273C7.8617 12.9695 5.6974 12.1004 4.53125 11.6347C6.60551 10.7617 10.1612 9.26574 13.4727 7.87298C15.2106 7.14204 16.8408 6.45703 18.0703 5.94134C19.1082 5.50603 19.6495 5.28063 19.9082 5.17376ZM17.1523 19.0253H17.1543L17.1523 19.0312C17.1536 19.0247 17.1514 19.0304 17.1523 19.0253Z" fill="white"/>
</svg>
