<svg width="48" height="47" viewBox="0 0 48 47" fill="none" xmlns="http://www.w3.org/2000/svg">
<g filter="url(#filter0_d_422_2744)">
<rect x="4" width="40" height="38.5738" rx="4" fill="#F3F9FF" shape-rendering="crispEdges"/>
<g clip-path="url(#clip0_422_2744)">
<path d="M12.0689 8.05406C12.0591 8.06881 12.8558 9.1557 13.8345 10.4639C14.8132 11.7721 16.8935 14.5557 18.4575 16.6459L21.3001 20.4475L21.1181 20.6541C21.0148 20.7672 18.9247 23.0245 16.4755 25.6705C14.0263 28.3213 12.0148 30.5049 12.0099 30.5295C12.0001 30.5541 12.428 30.5737 13.0427 30.5688L14.0903 30.5639L14.4345 30.1852C14.6263 29.9786 16.4067 28.0557 18.3935 25.9065C20.3804 23.7573 22.0624 21.9377 22.1312 21.859L22.2542 21.7164L23.2378 23.0344C23.7788 23.7573 25.2689 25.7541 26.5476 27.4655L28.8788 30.5737H32.4444C35.4099 30.5737 36.005 30.5639 35.9853 30.5098C35.9706 30.4705 35.0657 29.2508 33.9739 27.7901C32.8821 26.3344 31.6329 24.6623 31.2001 24.0819C30.7624 23.5016 29.4788 21.7754 28.3378 20.2557C27.1968 18.7311 26.2624 17.4623 26.2624 17.4426C26.2624 17.4082 32.2919 10.8623 34.3427 8.67373L34.928 8.04914H33.8509L32.7788 8.05406L31.5247 9.41144C30.8362 10.159 29.1493 11.9885 27.7722 13.4688L25.2788 16.1639L22.2542 12.1213L19.2247 8.07373L15.6591 8.04914C13.6968 8.03439 12.0788 8.0393 12.0689 8.05406ZM20.5181 12.4114C21.6837 13.9754 23.4837 16.3803 24.5165 17.7623C25.5493 19.1393 27.8411 22.2082 29.6116 24.5737C31.3821 26.9442 32.8476 28.9065 32.8722 28.9409C32.9017 28.9852 32.5526 29 31.2788 29H29.6509L26.4247 24.6819C18.9788 14.7327 15.2214 9.70652 15.1771 9.63275C15.1476 9.58848 15.4821 9.57373 16.7657 9.57373H18.3935L20.5181 12.4114Z" fill="black"/>
</g>
</g>
<defs>
<filter id="filter0_d_422_2744" x="0" y="0" width="48" height="46.5737" filterUnits="userSpaceOnUse" color-interpolation-filters="sRGB">
<feFlood flood-opacity="0" result="BackgroundImageFix"/>
<feColorMatrix in="SourceAlpha" type="matrix" values="0 0 0 0 0 0 0 0 0 0 0 0 0 0 0 0 0 0 127 0" result="hardAlpha"/>
<feOffset dy="4"/>
<feGaussianBlur stdDeviation="2"/>
<feComposite in2="hardAlpha" operator="out"/>
<feColorMatrix type="matrix" values="0 0 0 0 0 0 0 0 0 0 0 0 0 0 0 0 0 0 0.25 0"/>
<feBlend mode="normal" in2="BackgroundImageFix" result="effect1_dropShadow_422_2744"/>
<feBlend mode="normal" in="SourceGraphic" in2="effect1_dropShadow_422_2744" result="shape"/>
</filter>
<clipPath id="clip0_422_2744">
<rect width="24" height="22.5738" fill="white" transform="translate(12 8)"/>
</clipPath>
</defs>
</svg>
